<?xml version="1.0" standalone="no"?>
<!DOCTYPE svg PUBLIC "-//W3C//DTD SVG 20010904//EN"
 "http://www.w3.org/TR/2001/REC-SVG-20010904/DTD/svg10.dtd">
<svg version="1.0" xmlns="http://www.w3.org/2000/svg"
 width="200.000000pt" height="124.000000pt" viewBox="0 0 200.000000 124.000000"
 preserveAspectRatio="xMidYMid meet">
<metadata>
Created by potrace 1.15, written by Peter Selinger 2001-2017
</metadata>
<g transform="translate(0.000000,124.000000) scale(0.100000,-0.100000)"
fill="#fcedd5" stroke="none">
<path d="M930 923 c-136 -16 -265 -54 -364 -106 -98 -52 -218 -168 -264 -256
l-33 -61 -57 -2 c-31 -1 -74 -2 -94 -2 -33 1 -38 -2 -38 -22 0 -14 8 -25 20
-29 11 -3 107 -2 212 4 203 11 306 16 658 31 198 9 352 8 848 -5 l183 -5 -3
28 -3 27 -117 5 -116 5 -49 75 c-61 93 -126 152 -234 211 -102 57 -189 87
-289 99 -123 15 -150 16 -260 3z m235 -44 c219 -26 425 -144 519 -296 14 -24
26 -45 26 -48 0 -4 -143 -3 -317 1 -197 4 -398 2 -528 -4 -116 -6 -281 -14
-369 -18 l-158 -6 28 52 c45 81 161 185 258 231 95 45 166 65 296 84 122 17
137 17 245 4z"/>
<path d="M658 367 c-17 -16 -32 -50 -47 -108 -12 -46 -29 -106 -37 -133 -15
-53 -9 -66 28 -66 12 0 20 15 28 55 6 30 12 55 14 55 1 0 19 -22 40 -50 22
-29 46 -50 57 -50 27 0 24 7 -26 71 -44 57 -45 57 -21 63 14 3 41 21 60 40 28
26 36 41 36 69 0 29 -6 39 -34 56 -43 27 -67 26 -98 -2z"/>
<path d="M920 313 c-24 -43 -47 -80 -50 -83 -9 -9 -72 -132 -68 -135 1 -1 12
-5 24 -9 17 -5 25 3 51 51 28 53 34 58 65 58 32 0 33 -2 38 -45 4 -37 9 -46
28 -48 l22 -3 -6 133 c-3 73 -11 139 -16 146 -23 27 -45 11 -88 -65z"/>
<path d="M1189 367 c-64 -29 -118 -138 -97 -197 12 -35 60 -64 92 -56 24 6 96
64 96 77 0 4 -9 10 -19 14 -13 4 -35 -5 -66 -27 -38 -27 -48 -30 -55 -18 -14
22 -1 80 27 122 25 37 55 55 82 49 18 -3 9 20 -15 35 -15 10 -25 10 -45 1z"/>
<path d="M1394 373 c-46 -4 -52 -6 -51 -26 0 -12 -7 -62 -17 -110 -24 -117
-20 -122 93 -112 45 4 81 11 81 15 0 22 -33 32 -85 26 l-55 -6 7 32 c8 42 14
45 90 54 35 3 63 10 63 14 0 21 -33 32 -84 28 -46 -4 -53 -2 -48 11 9 26 24
31 90 31 34 0 62 4 62 10 0 13 -55 40 -77 38 -10 -1 -41 -3 -69 -5z"/>
<path d="M240 324 c-11 -25 -20 -49 -20 -53 0 -4 -28 -11 -63 -16 l-64 -10 14
44 c18 60 17 71 -7 71 -25 0 -33 -19 -71 -169 -36 -140 -36 -151 -5 -151 22 0
26 7 41 74 l16 75 50 10 c27 6 54 11 58 11 5 0 0 -27 -10 -61 -26 -85 -25
-109 5 -109 22 0 26 7 36 55 6 31 27 101 46 157 19 56 34 106 34 110 0 4 -9 8
-20 8 -15 0 -26 -13 -40 -46z"/>
<path d="M411 329 c-54 -55 -81 -114 -81 -176 0 -45 4 -54 32 -78 26 -22 39
-26 71 -22 21 3 48 14 59 24 19 17 68 112 68 133 0 13 -36 22 -92 24 -46 1
-48 0 -48 -26 0 -26 3 -28 40 -28 l39 0 -22 -42 c-31 -59 -53 -70 -79 -38 -36
44 -6 151 62 215 24 23 33 27 39 16 10 -15 43 -12 48 5 4 12 -47 34 -79 34
-10 0 -36 -18 -57 -41z"/>
<path d="M1623 338 c-41 -44 -63 -89 -70 -146 -4 -38 -1 -52 16 -73 48 -62
106 -40 159 59 25 46 32 72 32 115 0 53 -1 55 -31 66 -51 18 -73 13 -106 -21z"/>
<path d="M1871 349 c-44 -27 -68 -56 -80 -98 -12 -42 2 -74 54 -120 44 -38 83
-40 122 -7 27 23 27 26 11 42 -16 16 -19 16 -35 2 -32 -27 -70 -31 -93 -8 -33
33 -26 76 19 121 31 31 46 39 75 39 41 0 46 12 14 34 -30 21 -46 20 -87 -5z"/>
</g>
</svg>
