<?xml version="1.0" standalone="no"?>
<!DOCTYPE svg PUBLIC "-//W3C//DTD SVG 20010904//EN"
 "http://www.w3.org/TR/2001/REC-SVG-20010904/DTD/svg10.dtd">
<svg version="1.0" xmlns="http://www.w3.org/2000/svg"
 width="300.000000pt" height="337.000000pt" viewBox="0 0 300.000000 337.000000"
 preserveAspectRatio="xMidYMid meet">
<metadata>
Created by potrace 1.10, written by Peter Selinger 2001-2011
</metadata>
<g transform="translate(0.000000,337.000000) scale(0.100000,-0.100000)"
fill="#000000" stroke="none">
<path d="M1442 3325 c-3 -5 -8 -119 -10 -252 l-4 -243 40 0 41 0 3 88 c2 48 5
162 6 253 l3 166 -37 -1 c-19 -1 -39 -5 -42 -11z m52 -217 c-6 -256 -5 -252
-27 -256 -18 -4 -18 13 -8 421 1 29 5 37 20 37 18 0 19 -8 15 -202z"/>
<path d="M1858 3283 c-9 -10 -21 -45 -27 -78 -16 -81 -17 -88 -24 -105 -3 -8
-8 -35 -12 -60 -3 -24 -10 -49 -15 -55 -4 -5 -12 -43 -16 -83 l-7 -73 43 3
c40 3 43 5 46 33 4 52 25 149 33 160 5 5 12 36 15 68 4 31 12 57 17 57 6 0 8
9 4 19 -3 11 -1 22 5 26 17 10 12 76 -7 91 -24 18 -37 17 -55 -3z m50 -38 c2
-10 -1 -27 -6 -39 -9 -19 -29 -92 -38 -141 -2 -11 -11 -54 -20 -95 -9 -41 -17
-84 -18 -95 -2 -12 -10 -20 -22 -20 -25 0 -24 30 10 170 15 61 31 131 36 158
5 26 14 57 20 68 13 23 33 20 38 -6z"/>
<path d="M1093 3253 c-35 -7 -41 -57 -34 -303 l6 -225 35 3 c19 1 38 8 42 15
8 12 0 495 -9 510 -2 4 -7 6 -11 6 -4 -1 -17 -4 -29 -6z m18 -35 c1 -7 3 -53
4 -103 2 -49 6 -146 9 -215 6 -126 0 -158 -26 -147 -12 4 -15 44 -17 232 -1
124 1 230 4 236 9 13 25 11 26 -3z"/>
<path d="M2192 3107 c-7 -8 -18 -31 -26 -53 -7 -21 -23 -59 -34 -84 -38 -83
-70 -175 -73 -206 -4 -37 33 -89 56 -80 8 3 15 12 15 21 0 33 49 165 101 270
34 69 38 119 12 129 -10 3 -23 8 -29 11 -6 3 -16 0 -22 -8z m48 -46 c0 -15
-38 -99 -50 -111 -3 -3 -13 -27 -22 -55 -49 -144 -62 -175 -72 -172 -24 8 -15
65 25 162 23 55 47 114 53 130 21 55 36 74 51 69 8 -4 15 -14 15 -23z"/>
<path d="M700 3016 c0 -8 -7 -17 -16 -20 -14 -5 -16 -17 -11 -67 3 -33 10 -65
15 -72 5 -7 13 -37 17 -67 4 -30 11 -57 15 -60 6 -4 24 -80 47 -193 7 -34 31
-46 48 -24 7 10 17 17 24 17 15 0 14 55 -4 120 -8 30 -20 78 -26 105 -5 28
-14 59 -19 70 -5 11 -14 45 -20 75 -6 30 -12 62 -14 70 -3 8 -5 25 -5 38 -1
17 -7 22 -26 22 -15 0 -25 -6 -25 -14z m35 -58 c10 -58 10 -58 44 -183 16 -60
31 -122 33 -137 2 -15 7 -30 11 -34 14 -14 7 -49 -12 -61 -17 -11 -20 -6 -35
60 -10 40 -26 103 -38 140 -11 38 -18 76 -16 85 3 10 -1 24 -9 31 -8 7 -12 22
-10 32 3 11 1 19 -4 19 -13 0 -11 64 3 78 20 20 26 14 33 -30z"/>
<path d="M2447 2718 c-24 -35 -56 -81 -70 -103 -13 -22 -34 -50 -46 -62 -23
-24 -30 -93 -10 -93 7 0 18 -8 25 -17 13 -17 15 -16 34 7 11 14 42 57 67 95
26 39 60 85 75 103 36 42 41 112 8 112 -11 0 -20 5 -20 10 0 24 -22 6 -63 -52z
m83 -9 c0 -10 -13 -33 -29 -51 -15 -18 -43 -58 -62 -88 -50 -82 -79 -112 -96
-99 -20 17 -16 38 15 78 15 20 44 63 66 96 55 86 76 107 93 94 7 -6 13 -20 13
-30z"/>
<path d="M412 2655 c-16 -35 -15 -95 2 -114 8 -9 37 -61 66 -116 29 -55 61
-112 71 -127 11 -14 19 -31 19 -38 0 -7 7 -10 16 -6 9 3 17 6 19 6 2 0 9 24
15 53 l12 52 -57 95 c-32 52 -70 123 -86 157 -32 69 -57 82 -77 38z m60 -52
c11 -27 29 -59 38 -73 43 -63 90 -163 90 -194 0 -74 -22 -53 -97 91 -31 60
-62 115 -69 124 -22 25 -16 99 8 99 5 0 18 -21 30 -47z"/>
<path d="M1435 2671 c-3 -6 -30 -11 -58 -11 -30 0 -60 -7 -71 -15 -11 -8 -32
-15 -47 -15 -15 0 -31 -4 -34 -10 -3 -5 -15 -10 -26 -10 -11 0 -27 -7 -36 -16
-9 -8 -21 -13 -29 -10 -7 3 -18 -2 -24 -10 -7 -8 -20 -14 -30 -14 -10 0 -21
-7 -24 -16 -3 -8 -10 -13 -15 -10 -5 3 -14 -1 -21 -9 -7 -8 -17 -15 -22 -15
-5 0 -15 -6 -22 -12 -7 -7 -31 -28 -54 -46 -57 -47 -71 -61 -117 -113 -68 -77
-77 -90 -143 -202 -120 -204 -128 -229 -148 -435 -12 -128 25 -252 136 -452
37 -67 44 -78 98 -152 67 -90 207 -223 253 -240 10 -4 19 -12 19 -18 0 -5 9
-10 20 -10 11 0 20 -4 20 -10 0 -5 9 -10 20 -10 11 0 23 -7 26 -15 4 -8 17
-15 29 -15 13 0 27 -4 30 -10 3 -5 17 -10 29 -10 13 0 29 -6 35 -14 12 -14 39
-20 143 -34 32 -4 63 -13 70 -20 18 -18 199 -16 245 3 19 8 55 15 79 15 24 0
44 5 44 10 0 6 11 10 24 10 13 0 26 7 30 15 3 8 14 15 25 15 11 0 23 4 26 10
3 5 13 10 21 10 18 0 139 88 175 127 15 15 57 57 93 92 68 65 158 185 194 256
34 70 85 179 93 200 43 113 51 255 20 382 -23 95 -114 290 -178 381 -48 68
-263 292 -281 292 -5 0 -13 7 -16 16 -3 8 -10 12 -16 9 -6 -3 -13 1 -16 9 -3
9 -12 16 -20 16 -8 0 -14 5 -14 10 0 6 -8 10 -19 10 -10 0 -24 7 -31 15 -7 8
-21 15 -31 15 -10 0 -21 5 -24 10 -3 6 -14 10 -24 10 -10 0 -24 6 -30 14 -14
17 -81 25 -248 32 -79 3 -123 1 -128 -5z m295 -32 c60 -12 74 -17 137 -45 24
-11 43 -22 43 -26 0 -5 7 -8 16 -8 55 0 286 -211 387 -352 58 -81 142 -257
170 -353 12 -42 21 -110 23 -170 3 -89 1 -109 -26 -187 -36 -107 -112 -263
-168 -343 -50 -72 -205 -230 -284 -291 -73 -56 -240 -134 -285 -134 -19 0 -42
-4 -51 -9 -25 -13 -172 -20 -218 -10 -22 4 -52 11 -69 14 -118 23 -144 29
-172 41 -18 8 -47 21 -65 28 -77 32 -96 42 -158 82 -36 23 -88 64 -115 90 -76
73 -166 184 -160 194 4 6 2 10 -3 10 -25 0 -171 288 -178 351 -2 20 -8 48 -14
63 -12 34 -12 106 1 166 5 25 11 64 13 87 2 22 12 63 22 90 18 49 162 302 186
327 7 8 33 38 58 67 102 118 263 228 405 276 79 27 105 33 169 42 37 5 71 13
75 16 9 9 196 -2 261 -16z"/>
<path d="M1470 2565 c-14 -8 -43 -14 -65 -13 -39 1 -180 -36 -200 -52 -6 -5
-29 -15 -53 -23 -66 -23 -206 -124 -281 -202 -83 -88 -193 -251 -226 -336 -14
-35 -30 -72 -35 -81 -6 -10 -10 -41 -10 -70 0 -29 -5 -69 -11 -88 -22 -72 -11
-129 53 -268 21 -45 38 -86 38 -91 0 -5 4 -11 8 -13 4 -2 30 -37 57 -78 49
-76 229 -265 276 -291 15 -8 46 -25 70 -39 54 -30 154 -70 194 -77 17 -3 35
-9 41 -14 6 -5 37 -11 70 -15 32 -4 67 -11 78 -16 24 -13 190 -11 194 2 2 6
18 10 35 10 82 0 280 85 355 153 87 79 216 217 250 267 20 30 57 96 82 145 39
77 46 100 49 160 1 38 6 88 10 110 6 36 5 103 -2 205 -2 19 -15 59 -30 88 -15
28 -25 52 -21 52 3 0 -4 12 -15 26 -12 15 -21 31 -21 35 0 44 -265 335 -360
394 -94 60 -204 105 -256 105 -16 0 -47 6 -69 14 -55 19 -173 19 -205 1z m190
-20 c8 -5 40 -13 70 -17 88 -11 119 -19 131 -34 6 -8 20 -14 30 -14 11 0 19
-4 19 -10 0 -5 8 -10 19 -10 10 0 24 -7 31 -15 7 -8 19 -15 26 -15 8 0 14 -4
14 -10 0 -5 5 -10 11 -10 23 0 214 -194 267 -271 9 -13 19 -26 24 -29 4 -3 33
-57 65 -120 57 -112 58 -118 61 -205 2 -50 -2 -141 -7 -204 -10 -106 -14 -122
-55 -206 -55 -113 -107 -183 -223 -300 -90 -92 -153 -145 -172 -145 -6 0 -11
-4 -11 -10 0 -5 -8 -10 -19 -10 -10 0 -24 -7 -31 -15 -7 -8 -16 -13 -20 -10
-4 2 -16 -2 -26 -10 -10 -8 -28 -15 -39 -15 -12 0 -26 -5 -32 -11 -26 -26
-269 -47 -316 -28 -17 7 -43 12 -57 11 -15 -2 -46 4 -71 12 -24 9 -54 16 -65
16 -12 0 -27 7 -34 15 -7 9 -19 14 -26 11 -7 -3 -18 2 -24 10 -7 8 -23 14 -35
14 -12 0 -28 7 -35 15 -7 9 -15 13 -18 11 -2 -3 -19 6 -37 19 -17 14 -36 25
-41 25 -6 0 -29 18 -53 40 -23 22 -45 40 -47 40 -9 0 -81 78 -120 130 -63 83
-128 189 -153 250 -13 30 -27 60 -31 65 -23 32 -32 108 -22 178 6 39 14 94 18
122 3 27 15 73 25 101 18 47 118 217 158 268 33 42 180 186 190 186 6 0 11 4
11 9 0 5 8 12 18 15 32 13 62 31 62 38 0 5 9 8 19 8 10 0 21 7 25 15 3 8 15
15 26 15 19 0 29 4 83 32 32 17 92 30 164 35 34 3 66 10 72 17 12 14 158 15
181 1z"/>
<path d="M2716 2285 c-10 -14 -25 -25 -32 -25 -8 0 -14 -4 -14 -10 0 -5 -4
-10 -9 -10 -6 0 -22 -11 -37 -25 -15 -14 -32 -25 -39 -25 -7 0 -18 -7 -25 -15
-7 -8 -16 -12 -21 -9 -5 3 -9 -13 -9 -35 0 -23 4 -41 8 -41 5 0 15 -11 22 -25
7 -14 18 -25 23 -25 5 0 20 11 33 25 13 14 28 25 34 25 5 0 10 5 10 10 0 6 4
10 10 10 5 0 39 21 75 47 72 52 80 74 44 124 -25 36 -48 37 -73 4z m58 -21
c14 -38 4 -54 -61 -100 -38 -26 -80 -58 -95 -72 -29 -27 -44 -23 -59 15 -11
31 0 47 47 69 19 9 34 20 34 25 0 5 6 9 14 9 8 0 16 3 18 8 6 14 70 62 83 62
7 0 16 -7 19 -16z"/>
<path d="M169 2273 c-20 -5 -30 -55 -22 -112 5 -37 8 -41 34 -41 16 0 29 -4
29 -10 0 -5 7 -10 15 -10 8 0 15 -4 15 -10 0 -5 7 -10 15 -10 8 0 15 -4 15
-10 0 -5 7 -10 15 -10 8 0 15 -4 15 -8 0 -5 16 -14 35 -22 19 -8 35 -16 35
-19 0 -4 14 -12 32 -20 38 -17 59 -6 72 37 14 50 1 76 -51 102 -27 14 -67 37
-90 52 -23 15 -46 28 -51 28 -4 0 -19 11 -32 25 -13 14 -29 25 -37 25 -7 0
-13 5 -13 10 0 10 -4 11 -31 3z m102 -77 c43 -30 89 -58 101 -62 34 -10 79
-44 73 -55 -4 -5 -2 -9 3 -9 10 0 3 -58 -8 -65 -10 -6 -105 45 -188 102 -35
24 -67 43 -73 43 -5 0 -9 23 -9 50 0 30 4 50 11 50 6 0 46 -24 90 -54z"/>
<path d="M2845 1892 c-2 -2 -46 -5 -96 -6 -89 -2 -93 -3 -99 -26 -9 -34 0
-100 14 -101 40 -5 98 -4 101 1 2 4 42 6 89 5 l84 -1 16 38 c14 36 14 73 1 86
-7 7 -104 10 -110 4z m70 -21 c11 16 25 -1 25 -30 0 -16 -6 -34 -14 -40 -8 -7
-60 -14 -117 -17 -56 -2 -106 -7 -112 -11 -14 -8 -27 17 -27 55 0 29 3 32 33
33 50 0 151 10 155 14 2 2 15 0 28 -5 14 -6 26 -6 29 1z"/>
<path d="M42 1831 c-16 -9 -8 -48 20 -105 16 -31 24 -37 43 -33 13 2 63 -6
111 -19 48 -13 90 -21 94 -19 4 2 24 0 44 -6 46 -13 66 0 66 43 0 38 -26 88
-48 90 -22 2 -46 5 -52 8 -3 0 -23 3 -45 6 -57 6 -68 9 -82 17 -7 5 -17 5 -23
2 -5 -3 -18 -2 -27 3 -29 15 -87 22 -101 13z m148 -45 c52 -13 110 -23 128
-21 18 1 35 -2 38 -7 3 -4 9 -6 14 -3 4 3 13 -9 19 -27 19 -54 16 -60 -31 -55
-65 8 -118 18 -176 34 -29 8 -60 12 -68 9 -17 -7 -41 28 -50 71 -5 27 -4 31
12 27 11 -2 62 -15 114 -28z"/>
<path d="M2617 1548 c-9 -18 -20 -48 -23 -65 -6 -31 -5 -33 24 -33 16 0 35 -7
42 -15 7 -9 19 -14 26 -11 7 3 18 -2 24 -10 7 -8 20 -14 30 -14 10 0 23 -6 30
-14 6 -8 17 -13 24 -10 7 3 19 -2 26 -11 7 -8 22 -15 35 -15 27 0 45 36 45 90
0 33 -3 40 -19 40 -11 0 -23 5 -26 10 -3 6 -17 10 -29 10 -13 0 -29 7 -36 15
-7 8 -21 15 -31 15 -11 0 -19 5 -19 10 0 6 -8 10 -19 10 -10 0 -24 7 -31 15
-21 26 -54 18 -73 -17z m120 -33 c41 -19 78 -35 84 -35 17 0 59 -32 59 -45 0
-8 -4 -25 -10 -39 l-9 -25 -58 25 c-32 14 -79 36 -104 49 -26 14 -54 25 -63
25 -18 0 -21 31 -6 61 14 26 22 25 107 -16z"/>
<path d="M408 1503 c-10 -2 -18 -9 -18 -14 0 -5 -7 -9 -15 -9 -8 0 -15 -5 -15
-10 0 -6 -8 -14 -17 -17 -10 -4 -30 -18 -45 -32 -78 -75 -99 -91 -118 -91 -17
0 -20 -6 -20 -37 1 -145 30 -149 161 -20 15 15 32 27 38 27 6 0 11 3 11 8 0 4
23 21 51 37 l51 30 -5 59 c-5 51 -18 78 -37 75 -3 -1 -13 -3 -22 -6z m35 -52
c9 -45 -2 -67 -51 -99 -26 -17 -78 -58 -117 -92 -63 -55 -71 -59 -82 -44 -7
10 -13 32 -12 48 0 32 41 71 182 179 59 44 73 46 80 8z"/>
<path d="M2560 1305 c-7 -14 -17 -25 -22 -25 -4 0 -8 -17 -8 -38 0 -32 4 -39
33 -51 17 -8 43 -25 56 -38 13 -12 28 -23 32 -23 5 0 18 -8 28 -17 80 -74 81
-75 101 -38 7 14 17 25 22 25 4 0 8 16 8 36 0 27 -5 37 -19 41 -11 3 -22 11
-25 19 -3 8 -12 14 -21 14 -8 0 -15 5 -15 10 0 6 -6 10 -14 10 -8 0 -16 7 -20
15 -3 8 -12 15 -21 15 -8 0 -15 5 -15 10 0 6 -5 10 -11 10 -7 0 -22 11 -35 25
-13 14 -27 25 -32 25 -5 0 -15 -11 -22 -25z m220 -169 c0 -12 -6 -31 -14 -41
-13 -18 -14 -17 -40 6 -14 13 -57 44 -95 69 -78 50 -89 68 -66 104 l16 25 100
-70 c75 -54 99 -76 99 -93z"/>
<path d="M549 1067 c-15 -23 -50 -87 -79 -142 -29 -55 -56 -104 -61 -110 -24
-25 4 -135 35 -135 7 0 27 30 45 68 18 37 36 74 41 82 5 8 29 51 55 95 l47 80
-12 53 c-14 65 -35 68 -71 9z m51 -35 c0 -20 -9 -52 -21 -71 -11 -18 -43 -77
-71 -130 -60 -114 -66 -121 -78 -101 -17 27 -11 56 28 127 21 38 49 89 61 114
47 92 60 111 72 104 5 -4 9 -23 9 -43z"/>
<path d="M2344 925 c-4 -8 -12 -15 -20 -15 -9 0 -14 -12 -14 -35 0 -31 10 -50
45 -89 6 -6 28 -38 48 -71 21 -33 50 -75 65 -93 25 -30 29 -32 54 -20 41 19
38 68 -5 122 -19 23 -51 68 -72 101 -21 33 -41 62 -45 65 -4 3 -12 15 -19 28
-14 25 -29 29 -37 7z m63 -81 c21 -31 56 -80 77 -110 45 -61 52 -86 31 -104
-12 -10 -19 -6 -39 17 -14 15 -28 36 -31 46 -4 9 -11 17 -16 17 -5 0 -9 5 -9
12 0 6 -19 36 -42 67 -44 58 -50 73 -41 97 10 27 32 14 70 -42z"/>
<path d="M767 833 c-16 -89 -41 -189 -47 -198 -5 -5 -11 -32 -15 -60 -4 -27
-11 -55 -16 -61 -5 -6 -12 -39 -15 -73 -6 -55 -5 -64 14 -81 35 -33 59 -26 65
18 8 55 26 134 36 157 12 29 61 238 61 263 0 27 -33 62 -59 62 -13 0 -20 -9
-24 -27z m53 -18 c13 -16 13 -18 -44 -240 -13 -50 -20 -71 -24 -79 -3 -5 -7
-21 -8 -35 -2 -14 -5 -39 -7 -55 -4 -35 -19 -43 -37 -21 -11 13 -11 26 -1 68
6 29 18 79 26 112 8 33 21 87 30 120 9 33 21 79 27 103 10 45 18 51 38 27z"/>
<path d="M2075 658 c-25 -43 -21 -78 21 -175 8 -17 14 -33 14 -36 0 -3 13 -34
29 -69 16 -35 32 -75 36 -90 8 -32 27 -41 60 -28 34 13 33 50 -5 128 -16 34
-30 68 -30 75 0 7 -4 17 -8 23 -13 14 -45 103 -57 154 -12 55 -34 62 -60 18z
m41 -35 c11 -42 83 -223 106 -264 22 -40 21 -72 -3 -77 -16 -3 -20 5 -69 128
-12 30 -28 69 -35 85 -31 75 -35 88 -35 114 0 48 26 57 36 14z"/>
<path d="M1067 643 c-3 -5 -7 -116 -8 -248 -3 -266 0 -285 51 -285 l30 0 0 83
c0 46 3 158 6 248 5 130 3 168 -7 181 -16 19 -64 34 -72 21z m58 -186 c-3 -78
-7 -179 -9 -224 -2 -87 -8 -105 -29 -84 -11 11 -12 122 -2 266 2 28 4 85 4
128 1 76 2 77 22 66 20 -10 21 -15 14 -152z"/>
<path d="M1430 353 c0 -103 3 -218 7 -255 l6 -68 38 0 39 0 -1 163 c-1 89 -4
203 -8 252 l-6 90 -37 3 -38 3 0 -188z m46 155 c9 -14 11 -45 18 -275 5 -169
0 -201 -26 -175 -14 14 -24 462 -10 462 6 0 14 -5 18 -12z"/>
<path d="M1764 468 c4 -40 12 -78 16 -83 5 -6 12 -34 16 -63 4 -29 10 -55 15
-58 4 -2 6 -11 2 -19 -3 -9 -1 -21 4 -28 6 -6 13 -33 16 -59 11 -80 38 -105
80 -74 19 15 24 86 6 86 -6 0 -8 8 -4 19 3 11 1 22 -4 25 -6 4 -13 33 -17 66
-4 33 -10 60 -14 60 -7 0 -28 101 -34 165 -3 28 -6 30 -46 33 l-43 3 7 -73z
m74 -55 c25 -117 32 -148 58 -236 16 -54 16 -59 1 -74 -15 -15 -17 -14 -28 13
-6 16 -15 47 -20 69 -5 22 -11 51 -15 65 -3 14 -7 32 -8 40 -1 8 -13 57 -25
107 -23 93 -23 123 1 123 9 0 21 -38 36 -107z"/>
</g>
</svg>
